[Header]
FileType HTR
DataType HTRS
FileVersion 1
NumSegments 64
NumFrames 4
DataFrameRate 24
EulerRotationOrder ZYX
CalibrationUnits mm
RotationUnits Degrees
GlobalAxisofGravity Y
BoneLengthAxis Y
ScaleFactor 1.0
[SegmentNames&Hierarchy]
Hips	GLOBAL
Spine	Hips
Spine1	Spine
Spine2	Spine1
Neck	Spine2
Head	Neck
LeftEye	Head
RightEye	Head
LeftShoulder	Spine2
LeftArm	LeftShoulder
LeftForeArm	LeftArm
LeftHand	LeftForeArm
LeftHandThumb1	LeftHand
LeftHandThumb2	LeftHandThumb1
LeftHandThumb3	LeftHandThumb2
LeftHandThumb4	LeftHandThumb3
LeftHandIndex1	LeftHand
LeftHandIndex2	LeftHandIndex1
LeftHandIndex3	LeftHandIndex2
LeftHandIndex4	LeftHandIndex3
LeftHandMiddle1	LeftHand
LeftHandMiddle2	LeftHandMiddle1
LeftHandMiddle3	LeftHandMiddle2
LeftHandMiddle4	LeftHandMiddle3
LeftHandRing1	LeftHand
LeftHandRing2	LeftHandRing1
LeftHandRing3	LeftHandRing2
LeftHandRing4	LeftHandRing3
LeftHandPinky1	LeftHand
LeftHandPinky2	LeftHandPinky1
LeftHandPinky3	LeftHandPinky2
LeftHandPinky4	LeftHandPinky3
RightShoulder	Spine2
RightArm	RightShoulder
RightForeArm	RightArm
RightHand	RightForeArm
RightHandPinky1	RightHand
RightHandPinky2	RightHandPinky1
RightHandPinky3	RightHandPinky2
RightHandPinky4	RightHandPinky3
RightHandRing1	RightHand
RightHandRing2	RightHandRing1
RightHandRing3	RightHandRing2
RightHandRing4	RightHandRing3
RightHandMiddle1	RightHand
RightHandMiddle2	RightHandMiddle1
RightHandMiddle3	RightHandMiddle2
RightHandMiddle4	RightHandMiddle3
RightHandIndex1	RightHand
RightHandIndex2	RightHandIndex1
RightHandIndex3	RightHandIndex2
RightHandIndex4	RightHandIndex3
RightHandThumb1	RightHand
RightHandThumb2	RightHandThumb1
RightHandThumb3	RightHandThumb2
RightHandThumb4	RightHandThumb3
LeftUpLeg	Hips
LeftLeg	LeftUpLeg
LeftFoot	LeftLeg
LeftToeBase	LeftFoot
RightUpLeg	Hips
RightLeg	RightUpLeg
RightFoot	RightLeg
RightToeBase	RightFoot
[BasePosition]
Hips	0	0	0	0	0	0	1
Spine	0	0	0	0	0	0	1
Spine1	0	0	0	0	0	0	1
Spine2	0	0	0	0	0	0	1
Neck	0	0	0	0	0	0	1
Head	0	0	0	0	0	0	1
LeftEye	0	0	0	0	0	0	1
RightEye	0	0	0	0	0	0	1
LeftShoulder	0	0	0	0	0	0	1
LeftArm	0	0	0	0	0	0	1
LeftForeArm	0	0	0	0	0	0	1
LeftHand	0	0	0	0	0	0	1
LeftHandThumb1	0	0	0	0	0	0	1
LeftHandThumb2	0	0	0	0	0	0	1
LeftHandThumb3	0	0	0	0	0	0	1
LeftHandThumb4	0	0	0	0	0	0	1
LeftHandIndex1	0	0	0	0	0	0	1
LeftHandIndex2	0	0	0	0	0	0	1
LeftHandIndex3	0	0	0	0	0	0	1
LeftHandIndex4	0	0	0	0	0	0	1
LeftHandMiddle1	0	0	0	0	0	0	1
LeftHandMiddle2	0	0	0	0	0	0	1
LeftHandMiddle3	0	0	0	0	0	0	1
LeftHandMiddle4	0	0	0	0	0	0	1
LeftHandRing1	0	0	0	0	0	0	1
LeftHandRing2	0	0	0	0	0	0	1
LeftHandRing3	0	0	0	0	0	0	1
LeftHandRing4	0	0	0	0	0	0	1
LeftHandPinky1	0	0	0	0	0	0	1
LeftHandPinky2	0	0	0	0	0	0	1
LeftHandPinky3	0	0	0	0	0	0	1
LeftHandPinky4	0	0	0	0	0	0	1
RightShoulder	0	0	0	0	0	0	1
RightArm	0	0	0	0	0	0	1
RightForeArm	0	0	0	0	0	0	1
RightHand	0	0	0	0	0	0	1
RightHandPinky1	0	0	0	0	0	0	1
RightHandPinky2	0	0	0	0	0	0	1
RightHandPinky3	0	0	0	0	0	0	1
RightHandPinky4	0	0	0	0	0	0	1
RightHandRing1	0	0	0	0	0	0	1
RightHandRing2	0	0	0	0	0	0	1
RightHandRing3	0	0	0	0	0	0	1
RightHandRing4	0	0	0	0	0	0	1
RightHandMiddle1	0	0	0	0	0	0	1
RightHandMiddle2	0	0	0	0	0	0	1
RightHandMiddle3	0	0	0	0	0	0	1
RightHandMiddle4	0	0	0	0	0	0	1
RightHandIndex1	0	0	0	0	0	0	1
RightHandIndex2	0	0	0	0	0	0	1
RightHandIndex3	0	0	0	0	0	0	1
RightHandIndex4	0	0	0	0	0	0	1
RightHandThumb1	0	0	0	0	0	0	1
RightHandThumb2	0	0	0	0	0	0	1
RightHandThumb3	0	0	0	0	0	0	1
RightHandThumb4	0	0	0	0	0	0	1
LeftUpLeg	0	0	0	0	0	0	1
LeftLeg	0	0	0	0	0	0	1
LeftFoot	0	0	0	0	0	0	1
LeftToeBase	0	0	0	0	0	0	1
RightUpLeg	0	0	0	0	0	0	1
RightLeg	0	0	0	0	0	0	1
RightFoot	0	0	0	0	0	0	1
RightToeBase	0	0	0	0	0	0	1
[Hips]
45	0.05661925673	986.8146362	3.601142883	0.1523762345	0.01159756631	-0.05433532968	1.0
46	0.06559395045	998.6876831	-2.586712837	0.1133074835	0.002326752059	-0.07090691477	1.0
47	0.05668629333	1004.188293	-2.416581392	0.113581419	0.000902037893	-0.0619360134	1.0
48	0.05054169893	1008.812988	-1.310386062	0.1078917757	0.0001526903652	-0.05555275455	1.0
[Spine]
45	0	101.8159943	1.315000057	8.662985802	-16.84711266	-2.527549744	1.0
46	0	101.8159943	1.315000057	8.750432014	-17.69979858	-2.660752058	1.0
47	0	101.8159943	1.315000057	8.725233078	-16.43096352	-2.47593832	1.0
48	0	101.8159943	1.315000057	8.690149307	-14.87235832	-2.242660284	1.0
[Spine1]
45	0	100.8349991	-10.00800037	-8.662806511	-16.83849144	2.58201766	1.0
46	0	100.8349991	-10.00800037	-8.750619888	-17.69758987	2.731751204	1.0
47	0	100.8349991	-10.00800037	-8.725477219	-16.43018913	2.537975073	1.0
48	0	100.8349991	-10.00800037	-8.690426826	-14.87233448	2.298315287	1.0
[Spine2]
45	0	91	-13.73399925	-0.0001939009671	-17.03023148	1.921537296e-05	1.0
46	0	91	-13.73399925	-0.0001234631636	-17.9004364	3.889147411e-05	1.0
47	0	91	-13.73399925	-0.0001230867783	-16.6186409	3.615474634e-05	1.0
48	0	91	-13.73399925	-0.0001225710876	-15.04298687	3.27694579e-05	1.0
[Neck]
45	0	166.7169952	-25.16200066	-0.02731458656	17.0309639	-0.009773174301	1.0
46	0	166.7169952	-25.16200066	-0.01702258736	17.89844131	0.02239624038	1.0
47	0	166.7169952	-25.16200066	-0.01750636846	16.61665726	0.02247607335	1.0
48	0	166.7169952	-25.16200066	-0.01706255786	15.04111099	0.02138831094	1.0
[Head]
45	0	96.17900085	16.84999847	-0.08221226931	34.06186676	-0.0001325004268	1.0
46	0	96.17900085	16.84999847	-0.06034880504	35.79688263	0.007704577409	1.0
47	0	96.17900085	16.84999847	-0.0611484535	33.23332214	0.008359606378	1.0
48	0	96.17900085	16.84999847	-0.05879313871	30.08223152	0.008770278655	1.0
[LeftEye]
45	30.6760006	64.09500122	92.83599854	0	0	0	1.0
46	30.6760006	64.09500122	92.83599854	0	0	0	1.0
47	30.6760006	64.09500122	92.83599854	0	0	0	1.0
48	30.6760006	64.09500122	92.83599854	0	0	0	1.0
[RightEye]
45	-30.6760006	64.09500122	92.83499908	0	0	0	1.0
46	-30.6760006	64.09500122	92.83499908	0	0	0	1.0
47	-30.6760006	64.09500122	92.83499908	0	0	0	1.0
48	-30.6760006	64.09500122	92.83499908	0	0	0	1.0
[LeftShoulder]
45	45.70400238	109.4599991	-26.28000069	-0.0003614015586	4.628637726e-06	-0.00014497558	1.0
46	45.70400238	109.4599991	-26.28000069	-0.0003518150188	4.453495421e-06	1.057072222e-05	1.0
47	45.70400238	109.4599991	-26.28000069	-0.000351815921	4.013170383e-06	1.057264944e-05	1.0
48	45.70400238	109.4599991	-26.28000069	-0.0003518061421	3.564910457e-06	1.056514975e-05	1.0
[LeftArm]
45	105.923996	-5.24600029	-22.32099915	50.62399673	-0.0001437915926	0.0003537265002	1.0
46	105.923996	-5.24600029	-22.32099915	50.35467148	-0.0001382355404	0.000117128744	1.0
47	105.923996	-5.24600029	-22.32099915	46.14494705	-0.0001232500072	0.0001206486922	1.0
48	105.923996	-5.24600029	-22.32099915	41.39539337	-0.0001065475735	0.0001250183559	1.0
[LeftForeArm]
45	278.414978	-0.0009999999311	0	-6.610118726e-05	-101.1485367	-0.0001651127677	1.0
46	278.414978	-0.0009999999311	0	-0.0001220703125	-98.04019165	-0.0001373291016	1.0
47	278.414978	-0.0009999999311	0	-0.0001186253503	-88.73384857	-0.0001399046159	1.0
48	278.414978	-0.0009999999311	0	-0.000109067958	-78.6309967	-0.0001456211758	1.0
[LeftHand]
45	283.2879944	0	0	-5.894202232	-2.348025799	3.362671375	1.0
46	283.2879944	0	0	-5.894134521	-2.348026037	3.362504005	1.0
47	283.2879944	0	0	-5.894134521	-2.348025799	3.362503767	1.0
48	283.2879944	0	0	-5.894135475	-2.348025799	3.362503767	1.0
[LeftHandThumb1]
45	24.6609993	-15.75	26.8239994	-6.51604414	-5.594454288	5.268344879	1.0
46	24.6609993	-15.75	26.8239994	-6.515948772	-5.594467163	5.268239498	1.0
47	24.6609993	-15.75	26.8239994	-6.515947342	-5.594467163	5.268239498	1.0
48	24.6609993	-15.75	26.8239994	-6.515946388	-5.594467163	5.268239975	1.0
[LeftHandThumb2]
45	32.29800034	-18.64699936	18.64699936	6.421733379	12.43071175	2.707359314	1.0
46	32.29800034	-18.64699936	18.64699936	6.42183733	12.43069553	2.70736742	1.0
47	32.29800034	-18.64699936	18.64699936	6.42183733	12.43069553	2.707368135	1.0
48	32.29800034	-18.64699936	18.64699936	6.42183733	12.43069458	2.707368851	1.0
[LeftHandThumb3]
45	26.52600098	-15.31499958	15.31499958	-7.237612247	1.261280656	13.09553623	1.0
46	26.52600098	-15.31499958	15.31499958	-7.237574577	1.261266947	13.09553909	1.0
47	26.52600098	-15.31499958	15.31499958	-7.237574577	1.261267424	13.09553909	1.0
48	26.52600098	-15.31499958	15.31499958	-7.237574577	1.261267662	13.09553909	1.0
[LeftHandThumb4]
45	19.54599953	-11.28499985	11.28499985	0	0	0	1.0
46	19.54599953	-11.28499985	11.28499985	0	0	0	1.0
47	19.54599953	-11.28499985	11.28499985	0	0	0	1.0
48	19.54599953	-11.28499985	11.28499985	0	0	0	1.0
[LeftHandIndex1]
45	91.09299469	-5.170999527	22.60099792	-0.07260639966	2.676988602	-3.106795788	1.0
46	91.09299469	-5.170999527	22.60099792	-0.07262086868	2.677012205	-3.107094765	1.0
47	91.09299469	-5.170999527	22.60099792	-0.07262060046	2.677011967	-3.107094049	1.0
48	91.09299469	-5.170999527	22.60099792	-0.07262027264	2.677011967	-3.107093573	1.0
[LeftHandIndex2]
45	36.76399994	0	0	-2.115690677e-06	-6.743508152e-07	7.633367204e-06	1.0
46	36.76399994	0	0	-3.885871138e-06	-1.165420144e-06	5.523468189e-06	1.0
47	36.76399994	0	0	-3.704278015e-06	-1.195353207e-06	-1.151986908e-06	1.0
48	36.76399994	0	0	-3.355618219e-06	-1.181817538e-06	-8.569553756e-06	1.0
[LeftHandIndex3]
45	28.83100128	0	0	6.541004609e-07	-7.077165719e-06	9.946501814e-05	1.0
46	28.83100128	0	0	-7.102323707e-08	-1.395737058e-06	4.395970791e-06	1.0
47	28.83100128	0	0	-1.716031193e-07	-1.899370659e-06	4.620311302e-06	1.0
48	28.83100128	0	0	-2.28445586e-07	-2.09024256e-06	4.449523203e-06	1.0
[LeftHandIndex4]
45	23.92700005	0	0	0	0	0	1.0
46	23.92700005	0	0	0	0	0	1.0
47	23.92700005	0	0	0	0	0	1.0
48	23.92700005	0	0	0	0	0	1.0
[LeftHandMiddle1]
45	95.33399963	0	0	-0.07260543108	2.676985741	-3.10677433	1.0
46	95.33399963	0	0	-0.07262086868	2.677012205	-3.107094765	1.0
47	95.33399963	0	0	-0.07262060046	2.677011728	-3.107094049	1.0
48	95.33399963	0	0	-0.07262026519	2.67701149	-3.107093573	1.0
[LeftHandMiddle2]
45	36.98199844	0	0	-2.037481181e-06	9.039388829e-07	-1.785755558e-06	1.0
46	36.98199844	0	0	-3.885871138e-06	-1.165420144e-06	5.523468189e-06	1.0
47	36.98199844	0	0	-3.740482271e-06	-1.232337127e-06	-5.634285571e-06	1.0
48	36.98199844	0	0	-3.432076483e-06	-1.194708034e-06	-1.847146996e-05	1.0
[LeftHandMiddle3]
45	29.50900078	0	0	2.459247298e-06	-1.162644367e-05	0.0001031807769	1.0
46	29.50900078	0	0	3.188002665e-06	-5.440901532e-06	-3.737773113e-06	1.0
47	29.50900078	0	0	3.01247178e-06	-5.673212854e-06	-3.42992189e-06	1.0
48	29.50900078	0	0	2.756150479e-06	-5.480243999e-06	-3.23805375e-06	1.0
[LeftHandMiddle4]
45	28.3390007	0	0	0	0	0	1.0
46	28.3390007	0	0	0	0	0	1.0
47	28.3390007	0	0	0	0	0	1.0
48	28.3390007	0	0	0	0	0	1.0
[LeftHandRing1]
45	91.04499817	-0.4390000105	-18.65100098	-0.0726069361	2.676989794	-3.106807709	1.0
46	91.04499817	-0.4390000105	-18.65100098	-0.07262086868	2.677012205	-3.107094765	1.0
47	91.04499817	-0.4390000105	-18.65100098	-0.07262060046	2.677011728	-3.107094049	1.0
48	91.04499817	-0.4390000105	-18.65100098	-0.07262026519	2.67701149	-3.107093573	1.0
[LeftHandRing2]
45	31.54000092	0	0	-2.104440227e-06	-6.216424708e-07	4.073066521e-06	1.0
46	31.54000092	0	0	-3.885871138e-06	-1.165420144e-06	5.523468189e-06	1.0
47	31.54000092	0	0	-3.753818191e-06	-1.138905532e-06	5.404795502e-06	1.0
48	31.54000092	0	0	-3.458594392e-06	-1.064483172e-06	5.059616797e-06	1.0
[LeftHandRing3]
45	29.37700081	0	0	-6.539291064e-08	-1.190366038e-05	0.0001094427134	1.0
46	29.37700081	0	0	-7.102323707e-08	-1.395737058e-06	4.395970791e-06	1.0
47	29.37700081	0	0	-6.87767141e-08	-1.363520255e-06	4.2985248e-06	1.0
48	29.37700081	0	0	-6.356101068e-08	-1.273891712e-06	4.02057276e-06	1.0
[LeftHandRing4]
45	26.47500038	0	0	0	0	0	1.0
46	26.47500038	0	0	0	0	0	1.0
47	26.47500038	0	0	0	0	0	1.0
48	26.47500038	0	0	0	0	0	1.0
[LeftHandPinky1]
45	80.77799988	-4.887000084	-38.06099701	-0.0726089552	2.676994085	-3.106851578	1.0
46	80.77799988	-4.887000084	-38.06099701	-0.07262086868	2.677012205	-3.107094765	1.0
47	80.77799988	-4.887000084	-38.06099701	-0.07262060046	2.677011728	-3.107094049	1.0
48	80.77799988	-4.887000084	-38.06099701	-0.07262026519	2.67701149	-3.107093573	1.0
[LeftHandPinky2]
45	36	0	0	-4.239016249e-08	-1.46268053e-06	-3.1432588e-05	1.0
46	36	0	0	-2.078526649e-07	-4.143766546e-06	-6.927335198e-05	1.0
47	36	0	0	-1.349899179e-07	-3.984482646e-06	-8.345665992e-05	1.0
48	36	0	0	-4.822501154e-08	-3.649746532e-06	-9.603157378e-05	1.0
[LeftHandPinky3]
45	21.14200211	0	0	-8.136213978e-07	-1.453862751e-05	0.0001110945523	1.0
46	21.14200211	0	0	-1.236443268e-06	-4.69889801e-06	5.288814464e-06	1.0
47	21.14200211	0	0	-1.235469085e-06	-4.596276995e-06	5.271875125e-06	1.0
48	21.14200211	0	0	-1.185803512e-06	-4.300833098e-06	5.045655143e-06	1.0
[LeftHandPinky4]
45	19.75699997	0	0	0	0	0	1.0
46	19.75699997	0	0	0	0	0	1.0
47	19.75699997	0	0	0	0	0	1.0
48	19.75699997	0	0	0	0	0	1.0
[RightShoulder]
45	-45.70000076	109.4620056	-26.28000069	-0.0003612664295	5.616796443e-06	0.000145423779	1.0
46	-45.70000076	109.4620056	-26.28000069	-0.0003515881253	5.089290426e-06	-1.011192398e-05	1.0
47	-45.70000076	109.4620056	-26.28000069	-0.0003515881253	4.607816663e-06	-1.011849781e-05	1.0
48	-45.70000076	109.4620056	-26.28000069	-0.0003515804128	4.104627351e-06	-1.011460154e-05	1.0
[RightArm]
45	-105.9280014	-5.248000145	-22.32099915	50.62399292	1.26957857e-05	-0.0002923607244	1.0
46	-105.9280014	-5.248000145	-22.32099915	50.35467911	-3.625233376e-07	-6.210165157e-05	1.0
47	-105.9280014	-5.248000145	-22.32099915	46.14495468	1.349165927e-06	-6.486023631e-05	1.0
48	-105.9280014	-5.248000145	-22.32099915	41.395401	4.197339422e-06	-6.777712406e-05	1.0
[RightForeArm]
45	-278.414978	0	0	-1.573662848e-05	101.1483154	-8.003402399e-06	1.0
46	-278.414978	0	0	1.525878906e-05	98.03998566	0	1.0
47	-278.414978	0	0	1.821548904e-05	88.73365021	1.144537691e-06	1.0
48	-278.414978	0	0	1.857270399e-05	78.63079071	1.678746912e-06	1.0
[RightHand]
45	-283.2879944	0	0.0009999999311	-4.682328701	2.274716854	-2.605527401	1.0
46	-283.2879944	0	0.0009999999311	-4.682261467	2.274718046	-2.605367184	1.0
47	-283.2879944	0	0.0009999999311	-4.682261467	2.274718046	-2.605366945	1.0
48	-283.2879944	0	0.0009999999311	-4.682260513	2.274718285	-2.605366468	1.0
[RightHandPinky1]
45	-80.76699829	-4.885000229	-38.06000137	-0.05217786506	-2.478937864	2.413070202	1.0
46	-80.76699829	-4.885000229	-38.06000137	-0.05219216272	-2.478956461	2.413318872	1.0
47	-80.76699829	-4.885000229	-38.06000137	-0.05219247937	-2.478956461	2.413319111	1.0
48	-80.76699829	-4.885000229	-38.06000137	-0.05219252408	-2.478956461	2.413319349	1.0
[RightHandPinky2]
45	-36	0	0.0009999999311	-7.07012191e-07	0.001593307825	6.243171811e-07	1.0
46	-36	0	0.0009999999311	1.756012239e-06	0.001587171922	-2.403251756e-06	1.0
47	-36	0	0.0009999999311	1.901483529e-06	0.001586697763	-2.72291436e-06	1.0
48	-36	0	0.0009999999311	1.865055765e-06	0.001586669241	-2.767827255e-06	1.0
[RightHandPinky3]
45	-21.14200211	0	0	-9.95298933e-07	-4.935657216e-07	-0.0001100510999	1.0
46	-21.14200211	0	0	-2.52613404e-06	-3.085733624e-06	3.603243385e-06	1.0
47	-21.14200211	0	0	-2.511793127e-06	-1.99254805e-06	4.079523023e-06	1.0
48	-21.14200211	0	0	-2.374977612e-06	-1.253592359e-06	4.201795491e-06	1.0
[RightHandPinky4]
45	-19.75699997	0	0	0	0	0	1.0
46	-19.75699997	0	0	0	0	0	1.0
47	-19.75699997	0	0	0	0	0	1.0
48	-19.75699997	0	0	0	0	0	1.0
[RightHandRing1]
45	-91.03599548	-0.4390000105	-18.65100098	-0.05217599496	-2.477345228	2.413023472	1.0
46	-91.03599548	-0.4390000105	-18.65100098	-0.05219156295	-2.477369308	2.413315058	1.0
47	-91.03599548	-0.4390000105	-18.65100098	-0.05219186097	-2.47736907	2.413315535	1.0
48	-91.03599548	-0.4390000105	-18.65100098	-0.0521919392	-2.477368593	2.413315773	1.0
[RightHandRing2]
45	-31.54000092	0	0	-2.635783289e-07	2.901443168e-06	8.42493755e-05	1.0
46	-31.54000092	0	0	1.483676215e-06	3.609724672e-06	8.598709246e-05	1.0
47	-31.54000092	0	0	1.594259288e-06	3.415138508e-06	9.437297558e-05	1.0
48	-31.54000092	0	0	1.575340548e-06	3.13477176e-06	0.0001031613283	1.0
[RightHandRing3]
45	-29.37700081	0	0	-6.544009921e-07	8.246578545e-06	-0.0001073767344	1.0
46	-29.37700081	0	0	-1.329673751e-06	-2.630893025e-39	-1.590277359e-15	1.0
47	-29.37700081	0	0	-1.298719212e-06	-5.601274999e-11	1.268069094e-09	1.0
48	-29.37700081	0	0	-1.213049586e-06	-1.164301711e-10	2.63585731e-09	1.0
[RightHandRing4]
45	-26.47500038	0	0	0	0	0	1.0
46	-26.47500038	0	0	0	0	0	1.0
47	-26.47500038	0	0	0	0	0	1.0
48	-26.47500038	0	0	0	0	0	1.0
[RightHandMiddle1]
45	-95.32500458	0	0	-0.05217500031	-2.477342844	2.412991047	1.0
46	-95.32500458	0	0	-0.05219243467	-2.477369785	2.413317204	1.0
47	-95.32500458	0	0	-0.05219272152	-2.477369547	2.413317919	1.0
48	-95.32500458	0	0	-0.05219275132	-2.47736907	2.413317919	1.0
[RightHandMiddle2]
45	-36.98199844	0	0	-1.686742053e-07	6.620255135e-06	1.188385977e-05	1.0
46	-36.98199844	0	0	1.939787808e-06	4.460483069e-06	1.683075425e-05	1.0
47	-36.98199844	0	0	2.039024594e-06	3.763709856e-06	1.605730722e-05	1.0
48	-36.98199844	0	0	1.979588205e-06	3.161247378e-06	1.476946636e-05	1.0
[RightHandMiddle3]
45	-29.50900078	0	0	1.360265969e-06	-0.002016897546	-0.0001100217269	1.0
46	-29.50900078	0	0	-1.279159846e-06	-0.002017900115	6.341117114e-06	1.0
47	-29.50900078	0	0	-1.524071763e-06	-0.002017189981	6.88537375e-06	1.0
48	-29.50900078	0	0	-1.586683425e-06	-0.002017015358	6.901435881e-06	1.0
[RightHandMiddle4]
45	-28.3390007	0	0.0009999999311	0	0	0	1.0
46	-28.3390007	0	0.0009999999311	0	0	0	1.0
47	-28.3390007	0	0.0009999999311	0	0	0	1.0
48	-28.3390007	0	0.0009999999311	0	0	0	1.0
[RightHandIndex1]
45	-91.08300018	-5.167999744	22.60099792	-0.05217856169	-2.477345705	2.413012505	1.0
46	-91.08300018	-5.167999744	22.60099792	-0.05219243467	-2.477369785	2.413317204	1.0
47	-91.08300018	-5.167999744	22.60099792	-0.05219236389	-2.47736907	2.413317919	1.0
48	-91.08300018	-5.167999744	22.60099792	-0.0521922037	-2.477368355	2.413318157	1.0
[RightHandIndex2]
45	-36.76399994	0	0	-7.991732787e-07	1.641225367e-06	1.263359445e-05	1.0
46	-36.76399994	0	0	-2.158678853e-06	5.358331691e-06	3.349057079e-05	1.0
47	-36.76399994	0	0	-2.171165534e-06	5.407053777e-06	4.645883746e-05	1.0
48	-36.76399994	0	0	-2.071700237e-06	5.162573416e-06	5.895760114e-05	1.0
[RightHandIndex3]
45	-28.83100128	0	0	-1.440945567e-07	8.21172398e-06	-0.0001003599536	1.0
46	-28.83100128	0	0	-3.180554719e-15	-3.180554719e-15	0	1.0
47	-28.83100128	0	0	-2.877928058e-15	-3.106385549e-15	0	1.0
48	-28.83100128	0	0	-2.551503794e-15	-2.901329037e-15	0	1.0
[RightHandIndex4]
45	-23.92700005	0	0	0	0	0	1.0
46	-23.92700005	0	0	0	0	0	1.0
47	-23.92700005	0	0	0	0	0	1.0
48	-23.92700005	0	0	0	0	0	1.0
[RightHandThumb1]
45	-24.64799881	-15.72700024	26.82600021	-7.535560608	7.620206356	-5.027870178	1.0
46	-24.64799881	-15.72700024	26.82600021	-7.535460472	7.620212078	-5.027767181	1.0
47	-24.64799881	-15.72700024	26.82600021	-7.535460472	7.620213509	-5.027767181	1.0
48	-24.64799881	-15.72700024	26.82600021	-7.535459995	7.620214939	-5.027766228	1.0
[RightHandThumb2]
45	-32.29800034	-18.64699936	18.64699936	7.097993374	-14.10495281	-3.792290688	1.0
46	-32.29800034	-18.64699936	18.64699936	7.098095417	-14.10492992	-3.792293072	1.0
47	-32.29800034	-18.64699936	18.64699936	7.09809494	-14.10492992	-3.792292595	1.0
48	-32.29800034	-18.64699936	18.64699936	7.098093987	-14.10492992	-3.792292118	1.0
[RightHandThumb3]
45	-26.52600098	-15.31399918	15.31399918	-3.950517178	-6.714671135	-14.22183037	1.0
46	-26.52600098	-15.31399918	15.31399918	-3.950474739	-6.714651585	-14.22183895	1.0
47	-26.52600098	-15.31399918	15.31399918	-3.950474024	-6.714651585	-14.22183895	1.0
48	-26.52600098	-15.31399918	15.31399918	-3.950473785	-6.714651585	-14.22184181	1.0
[RightHandThumb4]
45	-19.54599953	-11.28499985	11.28499985	0	0	0	1.0
46	-19.54599953	-11.28499985	11.28499985	0	0	0	1.0
47	-19.54599953	-11.28499985	11.28499985	0	0	0	1.0
48	-19.54599953	-11.28499985	11.28499985	0	0	0	1.0
[LeftUpLeg]
45	82.07800293	-67.51699829	-15.99599934	-18.84135437	-0.2138790935	-0.190007329	1.0
46	82.07800293	-67.51699829	-15.99599934	-16.20380783	-0.2257635742	-0.16979523	1.0
47	82.07800293	-67.51699829	-15.99599934	-14.74828625	-0.2254314572	-0.1771943271	1.0
48	82.07800293	-67.51699829	-15.99599934	-13.38810539	-0.2254056036	-0.182491228	1.0
[LeftLeg]
45	0	-443.7049866	2.845999956	38.96637344	0.226433903	0.1682484448	1.0
46	0	-443.7049866	2.845999956	33.24378967	0.2291738093	0.1529642493	1.0
47	0	-443.7049866	2.845999956	30.39844322	0.23075369	0.137389034	1.0
48	0	-443.7049866	2.845999956	27.86422157	0.2320630103	0.1241590679	1.0
[LeftFoot]
45	0	-444.2789917	-29.8219986	-17.54525185	0.03938706964	0.2235404849	1.0
46	0	-444.2789917	-29.8219986	-15.79315662	0.03039654903	0.2004441172	1.0
47	0	-444.2789917	-29.8219986	-14.82367802	0.02803034708	0.2014915794	1.0
48	0	-444.2789917	-29.8219986	-13.9379425	0.02578354627	0.2019897997	1.0
[LeftToeBase]
45	0	-87.28699493	107.1060028	-4.073663712	-2.305819091e-09	-1.294074359e-08	1.0
46	0	-87.28699493	107.1060028	-2.490195036	-3.185105957e-09	-5.1731746e-08	1.0
47	0	-87.28699493	107.1060028	-1.970369101	-3.981743379e-09	-5.51250281e-08	1.0
48	0	-87.28699493	107.1060028	-1.591625094	-4.825306377e-09	-5.605262032e-08	1.0
[RightUpLeg]
45	-82.07800293	-67.51699829	-15.99599934	-20.51063156	0.2068111598	0.2619790733	1.0
46	-82.07800293	-67.51699829	-15.99599934	-15.48242188	0.2281127572	0.2614498734	1.0
47	-82.07800293	-67.51699829	-15.99599934	-13.61571884	0.2269409001	0.2528059781	1.0
48	-82.07800293	-67.51699829	-15.99599934	-12.07206726	0.2260978222	0.2467083186	1.0
[RightLeg]
45	0	-443.7049866	2.861999989	38.41244507	-0.1905245334	-0.1505428553	1.0
46	0	-443.7049866	2.861999989	32.08010864	-0.2199295163	-0.1356625557	1.0
47	0	-443.7049866	2.861999989	29.48456001	-0.2228070945	-0.1237867773	1.0
48	0	-443.7049866	2.861999989	27.13849831	-0.2254818827	-0.1134313643	1.0
[RightFoot]
45	0	-444.2770081	-29.83799934	-18.05381775	-0.01885005273	-0.1178088263	1.0
46	0	-444.2770081	-29.83799934	-16.71061325	-0.01959679835	-0.1178130507	1.0
47	0	-444.2770081	-29.83799934	-15.98206329	-0.0186094027	-0.1221159995	1.0
48	0	-444.2770081	-29.83799934	-15.17398643	-0.01748275384	-0.1263956726	1.0
[RightToeBase]
45	0	-87.28699493	107.1060028	-1.515573604e-05	-2.909377805e-08	-1.999551955e-07	1.0
46	0	-87.28699493	107.1060028	-1.515573604e-05	-2.909377805e-08	-1.999551955e-07	1.0
47	0	-87.28699493	107.1060028	-1.515573604e-05	-2.909377805e-08	-1.999551955e-07	1.0
48	0	-87.28699493	107.1060028	-1.515573604e-05	-2.909377805e-08	-1.999551955e-07	1.0
[EndOfFile]
